<svg xmlns="http://www.w3.org/2000/svg" xmlns:xlink="http://www.w3.org/1999/xlink" width="50" zoomAndPan="magnify" viewBox="0 0 37.5 37.499999" height="50" preserveAspectRatio="xMidYMid meet" version="1.0"><defs><clipPath id="14ff12841a"><path d="M 0.335938 13 L 5 13 L 5 24 L 0.335938 24 Z M 0.335938 13 " clip-rule="nonzero"/></clipPath><clipPath id="7e896c22e7"><path d="M 13 0.335938 L 37.007812 0.335938 L 37.007812 37.007812 L 13 37.007812 Z M 13 0.335938 " clip-rule="nonzero"/></clipPath></defs><path fill="#5271ff" d="M 10.320312 30.929688 C 8.730469 29.832031 7.386719 28.460938 6.328125 26.851562 C 5.789062 26.03125 4.683594 25.800781 3.863281 26.34375 C 3.042969 26.882812 2.816406 27.984375 3.355469 28.804688 C 4.667969 30.800781 6.335938 32.5 8.304688 33.859375 C 8.613281 34.070312 8.964844 34.171875 9.3125 34.171875 C 9.875 34.171875 10.433594 33.902344 10.777344 33.402344 C 11.335938 32.59375 11.128906 31.484375 10.320312 30.929688 Z M 10.320312 30.929688 " fill-opacity="1" fill-rule="nonzero"/><path fill="#5271ff" d="M 3.855469 11.09375 C 4.15625 11.292969 4.496094 11.386719 4.832031 11.386719 C 5.410156 11.386719 5.976562 11.105469 6.320312 10.585938 C 7.378906 8.972656 8.722656 7.597656 10.3125 6.503906 C 11.121094 5.945312 11.324219 4.839844 10.765625 4.03125 C 10.207031 3.222656 9.101562 3.019531 8.292969 3.574219 C 6.324219 4.933594 4.660156 6.632812 3.347656 8.632812 C 2.808594 9.453125 3.035156 10.554688 3.855469 11.09375 Z M 3.855469 11.09375 " fill-opacity="1" fill-rule="nonzero"/><g clip-path="url(#14ff12841a)"><path fill="#5271ff" d="M 4.171875 21.574219 C 3.988281 20.640625 3.894531 19.675781 3.894531 18.710938 C 3.894531 17.753906 3.984375 16.796875 4.167969 15.863281 C 4.355469 14.898438 3.722656 13.96875 2.761719 13.78125 C 1.789062 13.59375 0.863281 14.222656 0.675781 15.1875 C 0.453125 16.34375 0.335938 17.527344 0.335938 18.714844 C 0.339844 19.90625 0.453125 21.097656 0.679688 22.257812 C 0.847656 23.105469 1.589844 23.695312 2.421875 23.695312 C 2.535156 23.695312 2.652344 23.683594 2.765625 23.660156 C 3.730469 23.472656 4.359375 22.539062 4.171875 21.574219 Z M 4.171875 21.574219 " fill-opacity="1" fill-rule="nonzero"/></g><g clip-path="url(#7e896c22e7)"><path fill="#5271ff" d="M 18.710938 0.335938 C 17.394531 0.335938 16.082031 0.476562 14.804688 0.753906 C 13.84375 0.960938 13.234375 1.910156 13.441406 2.867188 C 13.621094 3.703125 14.359375 4.269531 15.175781 4.269531 C 15.300781 4.269531 15.429688 4.257812 15.554688 4.230469 C 16.585938 4.007812 17.648438 3.894531 18.710938 3.894531 C 26.882812 3.894531 33.53125 10.542969 33.53125 18.710938 C 33.53125 26.882812 26.882812 33.53125 18.710938 33.53125 C 17.648438 33.53125 16.585938 33.417969 15.554688 33.195312 C 14.59375 32.984375 13.648438 33.597656 13.441406 34.554688 C 13.234375 35.515625 13.84375 36.460938 14.804688 36.671875 C 16.082031 36.949219 17.394531 37.085938 18.710938 37.085938 C 28.84375 37.085938 37.085938 28.84375 37.085938 18.710938 C 37.085938 8.582031 28.84375 0.335938 18.710938 0.335938 Z M 18.710938 0.335938 " fill-opacity="1" fill-rule="nonzero"/></g><path fill="#5271ff" d="M 14.0625 26.761719 C 14.339844 26.921875 14.648438 27 14.953125 27 C 15.261719 27 15.566406 26.921875 15.84375 26.761719 L 27.121094 20.253906 C 27.667969 19.933594 28.007812 19.347656 28.007812 18.710938 C 28.007812 18.078125 27.667969 17.488281 27.121094 17.171875 L 15.84375 10.660156 C 15.292969 10.34375 14.613281 10.34375 14.0625 10.660156 C 13.515625 10.980469 13.175781 11.566406 13.175781 12.203125 L 13.175781 25.222656 C 13.175781 25.859375 13.515625 26.445312 14.0625 26.761719 Z M 16.730469 15.28125 L 22.675781 18.710938 L 16.730469 22.144531 Z M 16.730469 15.28125 " fill-opacity="1" fill-rule="nonzero"/></svg>